<?xml version="1.0" encoding="UTF-8"?>
<svg xmlns="http://www.w3.org/2000/svg" xmlns:xlink="http://www.w3.org/1999/xlink" width="1500pt" height="4000pt" viewBox="0 0 1500 4000" version="1.1">
<g id="surface1">
<path style="fill:none;stroke-width:10;stroke-linecap:butt;stroke-linejoin:miter;stroke:rgb(0%,0%,0%);stroke-opacity:1;stroke-miterlimit:10;" d="M 100 500 L 1400 500 "/>
<path style=" stroke:none;fill-rule:nonzero;fill:rgb(0%,0%,0%);fill-opacity:1;" d="M 755.941406 450 L 839.121094 450 L 839.121094 550 L 755.941406 550 Z M 755.941406 450 "/>
<path style=" stroke:none;fill-rule:nonzero;fill:rgb(90%,10%,10%);fill-opacity:1;" d="M 311.515625 450 L 321.023438 450 L 321.023438 550 L 311.515625 550 Z M 311.515625 450 "/>
<path style=" stroke:none;fill-rule:nonzero;fill:rgb(90%,10%,10%);fill-opacity:1;" d="M 351.917969 450 L 361.425781 450 L 361.425781 550 L 351.917969 550 Z M 351.917969 450 "/>
<path style=" stroke:none;fill-rule:nonzero;fill:rgb(90%,10%,10%);fill-opacity:1;" d="M 518.28125 450 L 527.789062 450 L 527.789062 550 L 518.28125 550 Z M 518.28125 450 "/>
<path style=" stroke:none;fill-rule:nonzero;fill:rgb(90%,10%,10%);fill-opacity:1;" d="M 903.289062 450 L 912.796875 450 L 912.796875 550 L 903.289062 550 Z M 903.289062 450 "/>
<path style=" stroke:none;fill-rule:nonzero;fill:rgb(90%,10%,10%);fill-opacity:1;" d="M 912.796875 450 L 922.304688 450 L 922.304688 550 L 912.796875 550 Z M 912.796875 450 "/>
<path style=" stroke:none;fill-rule:nonzero;fill:rgb(90%,10%,10%);fill-opacity:1;" d="M 967.457031 450 L 976.964844 450 L 976.964844 550 L 967.457031 550 Z M 967.457031 450 "/>
<path style=" stroke:none;fill-rule:nonzero;fill:rgb(90%,10%,10%);fill-opacity:1;" d="M 993.601562 450 L 1003.109375 450 L 1003.109375 550 L 993.601562 550 Z M 993.601562 450 "/>
<path style=" stroke:none;fill-rule:nonzero;fill:rgb(90%,10%,10%);fill-opacity:1;" d="M 1119.5625 450 L 1129.070312 450 L 1129.070312 550 L 1119.5625 550 Z M 1119.5625 450 "/>
<path style=" stroke:none;fill-rule:nonzero;fill:rgb(90%,10%,10%);fill-opacity:1;" d="M 1152.832031 450 L 1162.339844 450 L 1162.339844 550 L 1152.832031 550 Z M 1152.832031 450 "/>
<path style=" stroke:none;fill-rule:nonzero;fill:rgb(90%,10%,10%);fill-opacity:1;" d="M 1209.871094 450 L 1219.378906 450 L 1219.378906 550 L 1209.871094 550 Z M 1209.871094 450 "/>
<path style=" stroke:none;fill-rule:nonzero;fill:rgb(90%,10%,10%);fill-opacity:1;" d="M 1359.597656 450 L 1369.105469 450 L 1369.105469 550 L 1359.597656 550 Z M 1359.597656 450 "/>
<path style=" stroke:none;fill-rule:nonzero;fill:rgb(40%,90%,40%);fill-opacity:1;" d="M 1076.78125 450 L 1088.664062 450 L 1088.664062 550 L 1076.78125 550 Z M 1076.78125 450 "/>
<path style=" stroke:none;fill-rule:nonzero;fill:rgb(40%,90%,40%);fill-opacity:1;" d="M 1271.664062 450 L 1283.546875 450 L 1283.546875 550 L 1271.664062 550 Z M 1271.664062 450 "/>
<path style=" stroke:none;fill-rule:nonzero;fill:rgb(20%,23%,90%);fill-opacity:1;" d="M 1378.609375 450 L 1390.492188 450 L 1390.492188 550 L 1378.609375 550 Z M 1378.609375 450 "/>
<path style=" stroke:none;fill-rule:nonzero;fill:rgb(70%,70%,20%);fill-opacity:1;" d="M 273.492188 450 L 297.257812 450 L 297.257812 550 L 273.492188 550 Z M 273.492188 450 "/>
<path style="fill:none;stroke-width:10;stroke-linecap:butt;stroke-linejoin:miter;stroke:rgb(0%,0%,0%);stroke-opacity:1;stroke-miterlimit:10;" d="M 100 1500 L 1400 1500 "/>
<path style=" stroke:none;fill-rule:nonzero;fill:rgb(0%,0%,0%);fill-opacity:1;" d="M 682.839844 1450 L 809.960938 1450 L 809.960938 1550 L 682.839844 1550 Z M 682.839844 1450 "/>
<path style=" stroke:none;fill-rule:nonzero;fill:rgb(90%,10%,10%);fill-opacity:1;" d="M 215.128906 1450 L 224.722656 1450 L 224.722656 1550 L 215.128906 1550 Z M 215.128906 1450 "/>
<path style=" stroke:none;fill-rule:nonzero;fill:rgb(90%,10%,10%);fill-opacity:1;" d="M 251.105469 1450 L 260.699219 1450 L 260.699219 1550 L 251.105469 1550 Z M 251.105469 1450 "/>
<path style=" stroke:none;fill-rule:nonzero;fill:rgb(90%,10%,10%);fill-opacity:1;" d="M 450.183594 1450 L 459.777344 1450 L 459.777344 1550 L 450.183594 1550 Z M 450.183594 1450 "/>
<path style=" stroke:none;fill-rule:nonzero;fill:rgb(90%,10%,10%);fill-opacity:1;" d="M 502.953125 1450 L 512.546875 1450 L 512.546875 1550 L 502.953125 1550 Z M 502.953125 1450 "/>
<path style=" stroke:none;fill-rule:nonzero;fill:rgb(90%,10%,10%);fill-opacity:1;" d="M 512.546875 1450 L 522.140625 1450 L 522.140625 1550 L 512.546875 1550 Z M 512.546875 1450 "/>
<path style=" stroke:none;fill-rule:nonzero;fill:rgb(90%,10%,10%);fill-opacity:1;" d="M 553.320312 1450 L 562.914062 1450 L 562.914062 1550 L 553.320312 1550 Z M 553.320312 1450 "/>
<path style=" stroke:none;fill-rule:nonzero;fill:rgb(90%,10%,10%);fill-opacity:1;" d="M 606.089844 1450 L 615.683594 1450 L 615.683594 1550 L 606.089844 1550 Z M 606.089844 1450 "/>
<path style=" stroke:none;fill-rule:nonzero;fill:rgb(90%,10%,10%);fill-opacity:1;" d="M 630.074219 1450 L 639.667969 1450 L 639.667969 1550 L 630.074219 1550 Z M 630.074219 1450 "/>
<path style=" stroke:none;fill-rule:nonzero;fill:rgb(90%,10%,10%);fill-opacity:1;" d="M 639.667969 1450 L 649.261719 1450 L 649.261719 1550 L 639.667969 1550 Z M 639.667969 1450 "/>
<path style=" stroke:none;fill-rule:nonzero;fill:rgb(90%,10%,10%);fill-opacity:1;" d="M 656.457031 1450 L 666.050781 1450 L 666.050781 1550 L 656.457031 1550 Z M 656.457031 1450 "/>
<path style=" stroke:none;fill-rule:nonzero;fill:rgb(40%,90%,40%);fill-opacity:1;" d="M 243.910156 1450 L 255.902344 1450 L 255.902344 1550 L 243.910156 1550 Z M 243.910156 1450 "/>
<path style=" stroke:none;fill-rule:nonzero;fill:rgb(40%,90%,40%);fill-opacity:1;" d="M 879.519531 1450 L 891.511719 1450 L 891.511719 1550 L 879.519531 1550 Z M 879.519531 1450 "/>
<path style=" stroke:none;fill-rule:nonzero;fill:rgb(20%,23%,90%);fill-opacity:1;" d="M 1232.101562 1450 L 1244.09375 1450 L 1244.09375 1550 L 1232.101562 1550 Z M 1232.101562 1450 "/>
<path style=" stroke:none;fill-rule:nonzero;fill:rgb(70%,70%,20%);fill-opacity:1;" d="M 941.882812 1450 L 965.867188 1450 L 965.867188 1550 L 941.882812 1550 Z M 941.882812 1450 "/>
<path style=" stroke:none;fill-rule:nonzero;fill:rgb(70%,70%,20%);fill-opacity:1;" d="M 1016.234375 1450 L 1040.21875 1450 L 1040.21875 1550 L 1016.234375 1550 Z M 1016.234375 1450 "/>
<path style="fill:none;stroke-width:10;stroke-linecap:butt;stroke-linejoin:miter;stroke:rgb(0%,0%,0%);stroke-opacity:1;stroke-miterlimit:10;" d="M 100 2500 L 1400 2500 "/>
<path style=" stroke:none;fill-rule:nonzero;fill:rgb(0%,0%,0%);fill-opacity:1;" d="M 624.957031 2450 L 908.839844 2450 L 908.839844 2550 L 624.957031 2550 Z M 624.957031 2450 "/>
<path style=" stroke:none;fill-rule:nonzero;fill:rgb(90%,10%,10%);fill-opacity:1;" d="M 169.84375 2450 L 178.855469 2450 L 178.855469 2550 L 169.84375 2550 Z M 169.84375 2450 "/>
<path style=" stroke:none;fill-rule:nonzero;fill:rgb(90%,10%,10%);fill-opacity:1;" d="M 190.121094 2450 L 199.132812 2450 L 199.132812 2550 L 190.121094 2550 Z M 190.121094 2450 "/>
<path style=" stroke:none;fill-rule:nonzero;fill:rgb(90%,10%,10%);fill-opacity:1;" d="M 201.386719 2450 L 210.398438 2450 L 210.398438 2550 L 201.386719 2550 Z M 201.386719 2450 "/>
<path style=" stroke:none;fill-rule:nonzero;fill:rgb(90%,10%,10%);fill-opacity:1;" d="M 318.542969 2450 L 327.554688 2450 L 327.554688 2550 L 318.542969 2550 Z M 318.542969 2450 "/>
<path style=" stroke:none;fill-rule:nonzero;fill:rgb(90%,10%,10%);fill-opacity:1;" d="M 354.59375 2450 L 363.605469 2450 L 363.605469 2550 L 354.59375 2550 Z M 354.59375 2450 "/>
<path style=" stroke:none;fill-rule:nonzero;fill:rgb(90%,10%,10%);fill-opacity:1;" d="M 433.449219 2450 L 442.460938 2450 L 442.460938 2550 L 433.449219 2550 Z M 433.449219 2450 "/>
<path style=" stroke:none;fill-rule:nonzero;fill:rgb(90%,10%,10%);fill-opacity:1;" d="M 512.304688 2450 L 521.316406 2450 L 521.316406 2550 L 512.304688 2550 Z M 512.304688 2450 "/>
<path style=" stroke:none;fill-rule:nonzero;fill:rgb(90%,10%,10%);fill-opacity:1;" d="M 537.089844 2450 L 546.101562 2450 L 546.101562 2550 L 537.089844 2550 Z M 537.089844 2450 "/>
<path style=" stroke:none;fill-rule:nonzero;fill:rgb(90%,10%,10%);fill-opacity:1;" d="M 568.628906 2450 L 577.640625 2450 L 577.640625 2550 L 568.628906 2550 Z M 568.628906 2450 "/>
<path style=" stroke:none;fill-rule:nonzero;fill:rgb(90%,10%,10%);fill-opacity:1;" d="M 924.609375 2450 L 933.621094 2450 L 933.621094 2550 L 924.609375 2550 Z M 924.609375 2450 "/>
<path style=" stroke:none;fill-rule:nonzero;fill:rgb(90%,10%,10%);fill-opacity:1;" d="M 980.9375 2450 L 989.949219 2450 L 989.949219 2550 L 980.9375 2550 Z M 980.9375 2450 "/>
<path style=" stroke:none;fill-rule:nonzero;fill:rgb(90%,10%,10%);fill-opacity:1;" d="M 994.453125 2450 L 1003.464844 2450 L 1003.464844 2550 L 994.453125 2550 Z M 994.453125 2450 "/>
<path style=" stroke:none;fill-rule:nonzero;fill:rgb(90%,10%,10%);fill-opacity:1;" d="M 1007.972656 2450 L 1016.984375 2450 L 1016.984375 2550 L 1007.972656 2550 Z M 1007.972656 2450 "/>
<path style=" stroke:none;fill-rule:nonzero;fill:rgb(90%,10%,10%);fill-opacity:1;" d="M 1019.238281 2450 L 1028.25 2450 L 1028.25 2550 L 1019.238281 2550 Z M 1019.238281 2450 "/>
<path style=" stroke:none;fill-rule:nonzero;fill:rgb(90%,10%,10%);fill-opacity:1;" d="M 1064.296875 2450 L 1073.308594 2450 L 1073.308594 2550 L 1064.296875 2550 Z M 1064.296875 2450 "/>
<path style=" stroke:none;fill-rule:nonzero;fill:rgb(90%,10%,10%);fill-opacity:1;" d="M 1170.191406 2450 L 1179.203125 2450 L 1179.203125 2550 L 1170.191406 2550 Z M 1170.191406 2450 "/>
<path style=" stroke:none;fill-rule:nonzero;fill:rgb(90%,10%,10%);fill-opacity:1;" d="M 1215.25 2450 L 1224.261719 2450 L 1224.261719 2550 L 1215.25 2550 Z M 1215.25 2450 "/>
<path style=" stroke:none;fill-rule:nonzero;fill:rgb(90%,10%,10%);fill-opacity:1;" d="M 1226.515625 2450 L 1235.527344 2450 L 1235.527344 2550 L 1226.515625 2550 Z M 1226.515625 2450 "/>
<path style=" stroke:none;fill-rule:nonzero;fill:rgb(90%,10%,10%);fill-opacity:1;" d="M 1249.046875 2450 L 1258.058594 2450 L 1258.058594 2550 L 1249.046875 2550 Z M 1249.046875 2450 "/>
<path style=" stroke:none;fill-rule:nonzero;fill:rgb(90%,10%,10%);fill-opacity:1;" d="M 1273.832031 2450 L 1282.84375 2450 L 1282.84375 2550 L 1273.832031 2550 Z M 1273.832031 2450 "/>
<path style=" stroke:none;fill-rule:nonzero;fill:rgb(90%,10%,10%);fill-opacity:1;" d="M 1305.371094 2450 L 1314.382812 2450 L 1314.382812 2550 L 1305.371094 2550 Z M 1305.371094 2450 "/>
<path style=" stroke:none;fill-rule:nonzero;fill:rgb(20%,23%,90%);fill-opacity:1;" d="M 613.691406 2450 L 624.957031 2450 L 624.957031 2550 L 613.691406 2550 Z M 613.691406 2450 "/>
<path style=" stroke:none;fill-rule:nonzero;fill:rgb(70%,70%,20%);fill-opacity:1;" d="M 138.300781 2450 L 160.832031 2450 L 160.832031 2550 L 138.300781 2550 Z M 138.300781 2450 "/>
<path style="fill:none;stroke-width:10;stroke-linecap:butt;stroke-linejoin:miter;stroke:rgb(0%,0%,0%);stroke-opacity:1;stroke-miterlimit:10;" d="M 100 3500 L 1400 3500 "/>
<path style=" stroke:none;fill-rule:nonzero;fill:rgb(0%,0%,0%);fill-opacity:1;" d="M 777.011719 3450 L 815.84375 3450 L 815.84375 3550 L 777.011719 3550 Z M 777.011719 3450 "/>
<path style=" stroke:none;fill-rule:nonzero;fill:rgb(90%,10%,10%);fill-opacity:1;" d="M 103.375 3450 L 110.128906 3450 L 110.128906 3550 L 103.375 3550 Z M 103.375 3450 "/>
<path style=" stroke:none;fill-rule:nonzero;fill:rgb(90%,10%,10%);fill-opacity:1;" d="M 184.414062 3450 L 191.167969 3450 L 191.167969 3550 L 184.414062 3550 Z M 184.414062 3450 "/>
<path style=" stroke:none;fill-rule:nonzero;fill:rgb(90%,10%,10%);fill-opacity:1;" d="M 201.296875 3450 L 208.050781 3450 L 208.050781 3550 L 201.296875 3550 Z M 201.296875 3450 "/>
<path style=" stroke:none;fill-rule:nonzero;fill:rgb(90%,10%,10%);fill-opacity:1;" d="M 366.753906 3450 L 373.507812 3450 L 373.507812 3550 L 366.753906 3550 Z M 366.753906 3450 "/>
<path style=" stroke:none;fill-rule:nonzero;fill:rgb(90%,10%,10%);fill-opacity:1;" d="M 437.664062 3450 L 444.417969 3450 L 444.417969 3550 L 437.664062 3550 Z M 437.664062 3450 "/>
<path style=" stroke:none;fill-rule:nonzero;fill:rgb(90%,10%,10%);fill-opacity:1;" d="M 503.507812 3450 L 510.261719 3450 L 510.261719 3550 L 503.507812 3550 Z M 503.507812 3450 "/>
<path style=" stroke:none;fill-rule:nonzero;fill:rgb(90%,10%,10%);fill-opacity:1;" d="M 523.765625 3450 L 530.519531 3450 L 530.519531 3550 L 523.765625 3550 Z M 523.765625 3450 "/>
<path style=" stroke:none;fill-rule:nonzero;fill:rgb(90%,10%,10%);fill-opacity:1;" d="M 532.207031 3450 L 538.960938 3450 L 538.960938 3550 L 532.207031 3550 Z M 532.207031 3450 "/>
<path style=" stroke:none;fill-rule:nonzero;fill:rgb(90%,10%,10%);fill-opacity:1;" d="M 611.558594 3450 L 618.3125 3450 L 618.3125 3550 L 611.558594 3550 Z M 611.558594 3450 "/>
<path style=" stroke:none;fill-rule:nonzero;fill:rgb(90%,10%,10%);fill-opacity:1;" d="M 761.816406 3450 L 768.570312 3450 L 768.570312 3550 L 761.816406 3550 Z M 761.816406 3450 "/>
<path style=" stroke:none;fill-rule:nonzero;fill:rgb(90%,10%,10%);fill-opacity:1;" d="M 930.648438 3450 L 937.402344 3450 L 937.402344 3550 L 930.648438 3550 Z M 930.648438 3450 "/>
<path style=" stroke:none;fill-rule:nonzero;fill:rgb(90%,10%,10%);fill-opacity:1;" d="M 1013.375 3450 L 1020.128906 3450 L 1020.128906 3550 L 1013.375 3550 Z M 1013.375 3450 "/>
<path style=" stroke:none;fill-rule:nonzero;fill:rgb(90%,10%,10%);fill-opacity:1;" d="M 1065.714844 3450 L 1072.46875 3450 L 1072.46875 3550 L 1065.714844 3550 Z M 1065.714844 3450 "/>
<path style=" stroke:none;fill-rule:nonzero;fill:rgb(90%,10%,10%);fill-opacity:1;" d="M 1089.351562 3450 L 1096.105469 3450 L 1096.105469 3550 L 1089.351562 3550 Z M 1089.351562 3450 "/>
<path style=" stroke:none;fill-rule:nonzero;fill:rgb(90%,10%,10%);fill-opacity:1;" d="M 1214.285156 3450 L 1221.039062 3450 L 1221.039062 3550 L 1214.285156 3550 Z M 1214.285156 3450 "/>
<path style=" stroke:none;fill-rule:nonzero;fill:rgb(90%,10%,10%);fill-opacity:1;" d="M 1246.363281 3450 L 1253.117188 3450 L 1253.117188 3550 L 1246.363281 3550 Z M 1246.363281 3450 "/>
<path style=" stroke:none;fill-rule:nonzero;fill:rgb(90%,10%,10%);fill-opacity:1;" d="M 1320.648438 3450 L 1327.402344 3450 L 1327.402344 3550 L 1320.648438 3550 Z M 1320.648438 3450 "/>
<path style=" stroke:none;fill-rule:nonzero;fill:rgb(90%,10%,10%);fill-opacity:1;" d="M 1352.726562 3450 L 1359.480469 3450 L 1359.480469 3550 L 1352.726562 3550 Z M 1352.726562 3450 "/>
<path style=" stroke:none;fill-rule:nonzero;fill:rgb(90%,10%,10%);fill-opacity:1;" d="M 852.988281 3450 L 859.742188 3450 L 859.742188 3550 L 852.988281 3550 Z M 852.988281 3450 "/>
<path style=" stroke:none;fill-rule:nonzero;fill:rgb(90%,10%,10%);fill-opacity:1;" d="M 913.765625 3450 L 920.519531 3450 L 920.519531 3550 L 913.765625 3550 Z M 913.765625 3450 "/>
<path style=" stroke:none;fill-rule:nonzero;fill:rgb(90%,10%,10%);fill-opacity:1;" d="M 939.089844 3450 L 945.84375 3450 L 945.84375 3550 L 939.089844 3550 Z M 939.089844 3450 "/>
<path style=" stroke:none;fill-rule:nonzero;fill:rgb(90%,10%,10%);fill-opacity:1;" d="M 947.53125 3450 L 954.285156 3450 L 954.285156 3550 L 947.53125 3550 Z M 947.53125 3450 "/>
<path style=" stroke:none;fill-rule:nonzero;fill:rgb(90%,10%,10%);fill-opacity:1;" d="M 957.664062 3450 L 964.417969 3450 L 964.417969 3550 L 957.664062 3550 Z M 957.664062 3450 "/>
<path style=" stroke:none;fill-rule:nonzero;fill:rgb(90%,10%,10%);fill-opacity:1;" d="M 972.855469 3450 L 979.609375 3450 L 979.609375 3550 L 972.855469 3550 Z M 972.855469 3450 "/>
<path style=" stroke:none;fill-rule:nonzero;fill:rgb(40%,90%,40%);fill-opacity:1;" d="M 988.050781 3450 L 996.492188 3450 L 996.492188 3550 L 988.050781 3550 Z M 988.050781 3450 "/>
<path style=" stroke:none;fill-rule:nonzero;fill:rgb(70%,70%,20%);fill-opacity:1;" d="M 165.84375 3450 L 182.726562 3450 L 182.726562 3550 L 165.84375 3550 Z M 165.84375 3450 "/>
<path style=" stroke:none;fill-rule:nonzero;fill:rgb(70%,70%,20%);fill-opacity:1;" d="M 314.414062 3450 L 331.296875 3450 L 331.296875 3550 L 314.414062 3550 Z M 314.414062 3450 "/>
<path style=" stroke:none;fill-rule:nonzero;fill:rgb(70%,70%,20%);fill-opacity:1;" d="M 555.84375 3450 L 572.726562 3450 L 572.726562 3550 L 555.84375 3550 Z M 555.84375 3450 "/>
<path style=" stroke:none;fill-rule:nonzero;fill:rgb(70%,70%,20%);fill-opacity:1;" d="M 724.675781 3450 L 741.558594 3450 L 741.558594 3550 L 724.675781 3550 Z M 724.675781 3450 "/>
<path style=" stroke:none;fill-rule:nonzero;fill:rgb(70%,70%,20%);fill-opacity:1;" d="M 1021.816406 3450 L 1038.699219 3450 L 1038.699219 3550 L 1021.816406 3550 Z M 1021.816406 3450 "/>
<path style=" stroke:none;fill-rule:nonzero;fill:rgb(70%,70%,20%);fill-opacity:1;" d="M 1121.429688 3450 L 1138.3125 3450 L 1138.3125 3550 L 1121.429688 3550 Z M 1121.429688 3450 "/>
<path style=" stroke:none;fill-rule:nonzero;fill:rgb(70%,70%,20%);fill-opacity:1;" d="M 831.039062 3450 L 847.921875 3450 L 847.921875 3550 L 831.039062 3550 Z M 831.039062 3450 "/>
<path style=" stroke:none;fill-rule:nonzero;fill:rgb(70%,70%,20%);fill-opacity:1;" d="M 898.570312 3450 L 915.453125 3450 L 915.453125 3550 L 898.570312 3550 Z M 898.570312 3450 "/>
</g>
</svg>
